<svg xmlns="http://www.w3.org/2000/svg" viewBox="0 0 498.169 330.483"><title>Logo</title><g id="Capa_2" data-name="Capa 2"><g id="Capa_1-2" data-name="Capa 1"><polygon points="0.866 318.407 179.834 8.425 358.802 318.407 0.866 318.407"/><path d="M179.834,9.425l89.051,154.241,89.051,154.241H1.732L90.783,163.666,179.834,9.425m0-2L89.917,163.166,0,318.907H359.668L269.751,163.166,179.834,7.425Z"/><path d="M497.585,323.587a.907.907,0,0,0-.109-.453c-.677-1.194-1.365-2.382-2.043-3.575-2.684-4.961-5.549-9.844-8.344-14.736-1.786-3.126-3.619-6.223-5.459-9.315-9.025-15.616-18.109-31.2-27.126-46.817q-11.976-20.742-23.978-41.469c-2.983-5.321-5.89-10.651-8.991-15.911-3.179-5.391-6.371-10.773-9.505-16.191-.181-.313-.37-.623-.555-.936-1.3-2.265-2.615-4.525-3.916-6.791-.8-1.387-1.6-2.771-2.4-4.158-.081-.14-.16-.282-.24-.423-2.209-3.89-4.385-7.8-6.586-11.692-2.962-5.239-6.053-10.4-9.133-15.569Q377.8,115.823,366.4,96.1q-13.479-23.347-26.934-46.708c-2.105-3.82-4.193-7.649-6.393-11.419a159.617,159.617,0,0,1-9.824-19.411q2.122-3.645,4.246-7.291c.109-.187,1.627-2.413.264-2.233a3.9,3.9,0,0,0-.384.3q.594-1.037,1.191-2.071c.415-.723.091-1.028-.416-.928.318-.5,1.184-1.938.071-1.843a2.9,2.9,0,0,0-1.163,1.022A.506.506,0,0,0,326.9,5.4c.495-.868,1-1.733,1.492-2.6.4-.7-.164-.969-.689-.813a1.356,1.356,0,0,0-.237.115.535.535,0,0,0-.076-.392c.021-.036.042-.072.064-.108.3-.5.862-1.452-.1-1.6-.832-.126-2.086,2.136-2.413,2.657-1.253,1.989-2.4,4.041-3.588,6.072l-.1.178c-.053-.408-.113-.816-.166-1.224q-.162-.715-.658-.176a8.2,8.2,0,0,0-.4.726c-.011-.076-.024-.153-.034-.23q-.187-.618-.658-.176a5.985,5.985,0,0,0-.717,1.381c-.029-.141-.063-.279-.092-.42-.158-.792-.606-.2-.967.463a3.776,3.776,0,0,0-.877,1.321c-.158.438-.468,1.2-.667,1.961a.49.49,0,0,0-.2.761l.048.083c-.011.108-.022.214-.024.316-.305.209-.462.553-.174.838l.292.291a3.236,3.236,0,0,0,.069.675c.222.388.44.779.66,1.168-2.312,3.91-4.611,7.827-6.8,11.806-9.587,17.433-19.808,34.531-29.752,51.763q-8.043,13.939-16.072,27.889c-4.346,7.528-8.91,14.927-13.2,22.485-5.194,9.15-10.314,18.354-15.632,27.433-13.323,22.745-26.39,45.633-39.685,68.4-10.487,17.956-20.871,36-32.2,53.447-2.1,3.229-4.169,6.477-6.316,9.673l-5.3,7.626-1.589,2.563L145,304.5a17.548,17.548,0,0,1-4.038,1.715,21.68,21.68,0,0,1-6.375,1.007c-.815.024-.815.587-.385,1a2.006,2.006,0,0,0,.737.394c-.292.023-.578.053-.88.069-.834.045-.825.6-.364,1.007a1.55,1.55,0,0,0,.353.221c-.475.152-.426.6-.085.935-.123.009-.241.025-.366.033-.825.053-.847.578-.38,1a1.629,1.629,0,0,0,.393.252c-.037,0-.073.008-.11.01-.823.057-.844.582-.375,1a3.806,3.806,0,0,0,2,.627,1.754,1.754,0,0,0,.3.149q-.7.069-1.391.11c-.789.046-.76.624-.344,1.009a1.589,1.589,0,0,0,.475.276c-.265.21-.161.62.108.88.7.671,2.731.558,3.609.589,2.8.1,5.608.153,8.417.188q2.274.1,4.548.244a.393.393,0,0,0,.57-.2c4.549.011,9.1-.028,13.633-.069,19.6-.177,39.2-.152,58.8-.155,18.684,0,37.36-.029,56.041.2,12.471.155,24.949-.334,37.422-.2,25.176.262,50.351.034,75.53.188,21.09.129,42.2.21,63.263,1.288,4.977.255,9.96.418,14.935.7a98.683,98.683,0,0,1,10.971.921,31.757,31.757,0,0,1,6.662,1.743c3.316,1.372,6.358,5.027,8.139,7.871a.788.788,0,1,0,1.062-.462c-.126-.531-.29-1.064-.469-1.6.382.3.665.075.721-.546a3.308,3.308,0,0,0-.135-.793.994.994,0,0,0,.146-.338A3.864,3.864,0,0,0,497.585,323.587Zm-12.4-12.825c-.264.024-.527.044-.79.076-.517.051-1.033.116-1.55.172-.953-.2-1.91-.388-2.877-.525-14.331-2.422-29.051-2.518-43.553-2.751-39.173-.629-78.358-.473-117.535-.517q-40-.043-80.005-.011c-28.077,0-56.158-.119-84.236-.059,4.415-8.133,9.611-15.75,14.5-23.592q7.228-11.6,14.183-23.357c9.71-16.335,19.249-32.771,28.791-49.2q14.266-24.57,28.45-49.191,25.467-44.3,51.119-88.5c9.535-16.512,18.988-33.073,28.557-49.566q43.6,74.853,86.658,150.027c.362.631.728,1.259,1.09,1.89,13.731,23.928,27.6,47.779,41.394,71.67Q460.009,265.727,470.7,284.1q7.62,13.192,15.2,26.409a.648.648,0,0,0-.161.03C485.556,310.618,485.369,310.686,485.184,310.762Z"/><path d="M395.332,162.413a6.859,6.859,0,0,0-1.783.13c.018-.031.026-.069.041-.1q1.262-.573,2.522-1.149a1.191,1.191,0,1,0-.719-2.2c-.448.083-.887.2-1.33.3a.738.738,0,0,0-.187-.576c.8-.407,1.948-1.15,1.59-1.935.951-.508,2.289-1.47.984-2.4a2.825,2.825,0,0,0-1.718-.182,1.6,1.6,0,0,0-.314-.36,1.244,1.244,0,0,0-.175-.1l1.277-.578c.889-.4.744-1.632.185-2.257-.744-.832-1.951-.152-2.764.212-32.153,14.388-64.129,29.183-96.178,43.8-20.1,9.167-40.153,18.427-60.338,27.4-4.5,2-8.962,4.116-13.454,6.147q-3.274,1.551-6.683,2.785a79.173,79.173,0,0,1-7.663,2.835c-2.3.945-4.562,2-6.846,2.988a1.607,1.607,0,0,0-.689.616c-1.6.463-3.193.937-4.806,1.393a1.011,1.011,0,0,0-.475,1.278c.012.02.028.035.04.054-.432.126-.86.26-1.293.381a.984.984,0,0,0-.476,1.277c.033.053.076.095.111.146-.555.07-1.11.144-1.667.207a.816.816,0,0,0-.477,1.277c.03.035.065.063.1.1a1.318,1.318,0,0,0,.039.184h0q-.688.169-1.378.335c-.574.039-1.148.083-1.722.121q-1.084.321-.478,1.276a8.318,8.318,0,0,0,1.186.96c-1.248.1-2.5.18-3.746.261q-1.112.311-.48,1.276c.072.07.153.128.227.195-.567.036-1.134.077-1.7.107q-1.272.249-.48,1.275a12.1,12.1,0,0,0,4.5,2.455q4.524,1.87,9.157,3.453a12.118,12.118,0,0,0,5.005,1.13q12.217-5.507,24.422-11.043c55.988-24.839,111.53-50.676,167.314-75.967a2.163,2.163,0,0,0,1.706-1.78,2.16,2.16,0,0,0-2.429-.422c-.684.158-1.357.351-2.036.528l1.77-.8c1.343-.608,1.7-1.738.684-2.081l1.662-.757C396.94,163.886,397.153,162.424,395.332,162.413Z"/><path d="M402.223,190.667a6.889,6.889,0,0,0-1.787.1c.02-.04.036-.082.052-.123q1.242-.537,2.483-1.075a1.191,1.191,0,1,0-.677-2.217c-.456.076-.9.186-1.356.278a.769.769,0,0,0-.2-.539c.81-.4,1.985-1.129,1.6-1.929.955-.49,2.293-1.425,1.014-2.379a2.786,2.786,0,0,0-1.766-.208,1.631,1.631,0,0,0-.274-.326,1.261,1.261,0,0,0-.192-.111l.571-.245c.981-.419,1.643-.772,1.254-1.955-.345-1.052-1.18-1.253-2.169-.83-39.109,16.723-78.077,33.787-117.1,50.716-25.715,11.156-51.317,22.629-77.179,33.439-9.8,4.094-19.386,8.838-29.5,12.116-2.923.948-5.723,2.283-8.561,3.467a1.469,1.469,0,0,0-.512.38c-1.726.486-3.455.962-5.191,1.411a1.012,1.012,0,0,0-.5,1.268c.021.037.048.065.07.1l-1.31.336a.984.984,0,0,0-.5,1.268c.024.041.057.074.083.114-.53.056-1.06.118-1.592.168a.815.815,0,0,0-.5,1.267c.013.016.028.028.041.044a1.328,1.328,0,0,0,.059.306l.007.01-.871.19c-.737.036-1.474.078-2.21.112q-1.094.3-.5,1.267a8.308,8.308,0,0,0,1.194,1c-1.25.072-2.5.15-3.753.209q-1.122.288-.5,1.267c.062.062.132.113.195.173-.552.023-1.1.048-1.656.065q-1.284.222-.5,1.266a12.262,12.262,0,0,0,4.489,2.55q4.516,1.965,9.148,3.644a12.258,12.258,0,0,0,5.013,1.235q12.217-5.264,24.432-10.533c69.53-29.318,138.508-59.945,207.8-89.812a1.4,1.4,0,1,0-.681-2.215c-.682.145-1.354.324-2.031.487l1.7-.736c1.389-.6,1.778-1.767.667-2.1l1.688-.731C403.8,192.17,404.049,190.712,402.223,190.667Z"/><path d="M429.236,213.638a6.882,6.882,0,0,0-1.786.1,1.289,1.289,0,0,0,.051-.121q1.244-.541,2.487-1.084a1.191,1.191,0,1,0-.682-2.215c-.454.076-.9.187-1.351.281a.766.766,0,0,0-.2-.543c.808-.4,1.98-1.132,1.6-1.93.955-.492,2.293-1.431,1.01-2.383a2.787,2.787,0,0,0-1.76-.205,1.612,1.612,0,0,0-.279-.329,1.19,1.19,0,0,0-.19-.11l.561-.242c.98-.421,1.652-.774,1.26-1.961-.349-1.055-1.192-1.248-2.181-.823-32.96,14.177-65.8,28.648-98.682,43-23.037,10.052-46.024,20.227-69.151,30.071-4.57,1.946-9.1,4-13.655,5.979q-3.321,1.514-6.769,2.718a82.063,82.063,0,0,1-7.746,2.761c-2.292.926-4.547,1.958-6.827,2.914a1.483,1.483,0,0,0-.556.438c-1.7.457-3.4.928-5.124,1.378a1.012,1.012,0,0,0-.495,1.27c.017.029.039.052.057.081-.433.119-.865.242-1.3.355a.984.984,0,0,0-.5,1.269c.025.042.059.076.086.117-.533.058-1.066.121-1.6.173a.815.815,0,0,0-.5,1.268c.015.018.033.033.048.05a1.341,1.341,0,0,0,.056.291c-.32.074-.64.145-.96.217-.706.037-1.411.079-2.117.113q-1.092.3-.5,1.268a8.413,8.413,0,0,0,1.19.993c-1.25.075-2.5.155-3.75.217q-1.12.291-.5,1.268c.063.062.133.113.2.174-.552.023-1.106.054-1.658.072q-1.283.225-.5,1.267a12.248,12.248,0,0,0,4.491,2.539q4.519,1.953,9.15,3.622a12.242,12.242,0,0,0,5.012,1.222q12.257-5.307,24.509-10.626c59.62-25.3,118.78-51.672,178.2-77.429a1.4,1.4,0,1,0-.687-2.213c-.683.147-1.357.329-2.035.493l1.716-.745c1.384-.6,1.768-1.764.668-2.1l1.685-.734C430.819,215.137,431.061,213.678,429.236,213.638Z"/><path d="M430.938,245.622c1.4-.6,1.373-1.982-.078-2.149a4.642,4.642,0,0,0-1.973.08.833.833,0,0,0-.193-.4c.809-.4,1.981-1.129,1.6-1.928.955-.49,2.294-1.429,1.015-2.383a2.786,2.786,0,0,0-1.771-.205,1.553,1.553,0,0,0-.273-.323,1.127,1.127,0,0,0-.187-.109l.56-.239c.983-.416,1.653-.776,1.262-1.96-.349-1.06-1.19-1.244-2.18-.824-23.5,9.952-46.892,20.141-70.34,30.21-13.814,5.932-27.656,11.8-41.479,17.713q-6.078,2.711-12.39,4.835a26.893,26.893,0,0,0-5.659,2.078c-1.281.547-2.57,1.076-3.857,1.61a1.43,1.43,0,0,0-.461.329c-1.761.468-3.513.983-5.28,1.42a1.013,1.013,0,0,0-.5,1.267c.021.038.05.068.072.1-.436.11-.872.224-1.31.331a.984.984,0,0,0-.5,1.266c.024.041.055.073.081.112-.527.053-1.053.111-1.581.157a.816.816,0,0,0-.5,1.266c.01.012.021.022.031.034a1.375,1.375,0,0,0,.062.328c.007.011.016.02.023.031l-.858.174-2.234.081q-1.1.3-.506,1.265a8.308,8.308,0,0,0,1.241,1.039c-1.265.061-2.531.122-3.8.168q-1.124.284-.508,1.265c.07.07.148.128.219.2L277,302.5q-1.285.218-.508,1.264a12.274,12.274,0,0,0,4.486,2.568q4.515,1.982,9.146,3.679a12.279,12.279,0,0,0,5.014,1.255c22.045-9.444,44.181-18.67,66.234-28.1,22.5-9.616,44.938-19.364,67.443-28.961a1.4,1.4,0,1,0-.679-2.216c-.686.145-1.364.325-2.046.488.569-.242,1.137-.487,1.707-.73a1.844,1.844,0,0,0,1.414-1.678,1.348,1.348,0,0,0-.609-.487c.528-.226,1.054-.454,1.581-.679,1.592-.681,1.837-2.141.012-2.188a6.95,6.95,0,0,0-1.8.1,1.333,1.333,0,0,0,.052-.123C429.279,246.336,430.108,245.977,430.938,245.622Z"/><path d="M459.835,265.663c1.4-.606,1.411-1.989-.069-2.152a4.765,4.765,0,0,0-1.925.07.818.818,0,0,0-.2-.421c.826-.4,2-1.134,1.612-1.929.97-.5,2.3-1.426,1.015-2.37a2.914,2.914,0,0,0-1.7-.212,1.6,1.6,0,0,0-.291-.337,1.254,1.254,0,0,0-.206-.114l.554-.235c.992-.417,1.78-.768,1.377-2-.363-1.1-1.293-1.213-2.292-.79-18.376,7.781-36.661,15.786-55.045,23.543-12.089,5.1-24.128,10.317-36.2,15.463q-6.018,2.676-12.266,4.77a26.886,26.886,0,0,0-5.669,2.078c-1.3.554-2.605,1.089-3.908,1.629a1.383,1.383,0,0,0-.412.284c-1.78.483-3.551,1.011-5.34,1.453a1.011,1.011,0,0,0-.5,1.266c.02.037.048.065.069.1-.436.109-.869.228-1.306.335a.985.985,0,0,0-.5,1.266c.024.04.054.071.079.11-.524.052-1.049.11-1.575.155a.816.816,0,0,0-.506,1.266c.009.011.019.019.028.03a1.344,1.344,0,0,0,.063.336c.007.01.015.018.022.028-.276.056-.551.113-.827.168q-1.131.041-2.263.081-1.1.3-.507,1.265a8.4,8.4,0,0,0,1.251,1.048q-1.9.091-3.808.158-1.124.283-.509,1.265c.068.069.145.126.215.193-.558.008-1.117.019-1.675.029q-1.286.216-.51,1.264a12.3,12.3,0,0,0,4.485,2.573q4.517,1.988,9.146,3.69a12.318,12.318,0,0,0,5.015,1.26q56.448-24.1,112.966-48.046a1.412,1.412,0,1,0-.664-2.221c-.671.138-1.333.31-2,.465l1.71-.731a1.859,1.859,0,0,0,1.439-1.674,1.364,1.364,0,0,0-.613-.492c.506-.215,1.011-.433,1.517-.648,1.6-.68,1.874-2.14.027-2.189a6.989,6.989,0,0,0-1.806.092,1.332,1.332,0,0,0,.055-.128C458.2,266.362,459.018,266.015,459.835,265.663Z"/><path d="M378.958,138.591c1.4-.6,1.371-1.984-.081-2.148a4.644,4.644,0,0,0-1.963.079.832.832,0,0,0-.195-.4c.809-.4,1.982-1.129,1.6-1.928.955-.49,2.293-1.429,1.013-2.382a2.78,2.78,0,0,0-1.767-.206,1.6,1.6,0,0,0-.275-.326,1.159,1.159,0,0,0-.19-.11l.57-.244c.981-.417,1.645-.773,1.256-1.956-.347-1.055-1.183-1.251-2.172-.829-30.772,13.1-61.425,26.479-92.127,39.74-21.955,9.483-43.963,18.852-65.9,28.367q-5.247,2.275-10.5,4.545-5.286,2.341-10.772,4.185l-3.389,1.081c-2.231.857-4.411,1.9-6.62,2.819a1.47,1.47,0,0,0-.535.411c-1.724.45-3.444.918-5.185,1.361a1.011,1.011,0,0,0-.5,1.267c.018.032.042.057.061.087-.434.115-.865.24-1.3.349a.984.984,0,0,0-.5,1.267c.024.041.056.074.082.113-.528.055-1.057.115-1.586.163a.816.816,0,0,0-.5,1.267c.012.014.026.025.037.039a1.379,1.379,0,0,0,.061.317h0c-.318.073-.637.141-.955.211l-2.119.088q-1.093.3-.5,1.266a8.346,8.346,0,0,0,1.209,1.013c-1.256.068-2.511.141-3.768.195q-1.122.286-.5,1.266c.061.062.13.112.193.172-.551.02-1.1.047-1.654.06q-1.284.221-.506,1.266a12.286,12.286,0,0,0,4.487,2.558q4.518,1.972,9.148,3.66a12.286,12.286,0,0,0,5.014,1.244Q200.008,223.2,212.4,217.88l-1.566.66c55.558-23.275,110.664-47.618,166.021-71.365a2.178,2.178,0,0,0,1.753-1.753,2.176,2.176,0,0,0-2.436-.461c-.69.147-1.37.329-2.054.494.575-.246,1.149-.5,1.725-.741a1.841,1.841,0,0,0,1.408-1.68,1.352,1.352,0,0,0-.6-.483c.52-.223,1.04-.449,1.56-.673,1.59-.683,1.832-2.143.007-2.187a6.876,6.876,0,0,0-1.791.1c.02-.041.037-.084.053-.127Q377.717,139.129,378.958,138.591Z"/><path d="M364.989,109.525c1.4-.607,1.362-1.991-.091-2.148a4.651,4.651,0,0,0-1.961.089.819.819,0,0,0-.192-.409c.805-.4,1.971-1.135,1.6-1.93.955-.495,2.294-1.442,1.006-2.389a2.8,2.8,0,0,0-1.756-.2,1.627,1.627,0,0,0-.284-.332,1.2,1.2,0,0,0-.184-.105l.529-.229c.983-.423,1.681-.783,1.28-1.977-.359-1.068-1.223-1.23-2.214-.8-21.595,9.314-43.095,18.84-64.642,28.266q-23.8,10.412-47.637,20.722-6.1,2.766-12.437,4.934a28.181,28.181,0,0,0-5.711,2.119c-1.293.556-2.592,1.1-3.889,1.643a1.48,1.48,0,0,0-.523.4c-1.717.474-3.425.99-5.146,1.433a1.011,1.011,0,0,0-.494,1.27c.019.034.045.061.066.094-.436.113-.872.23-1.309.342a.984.984,0,0,0-.5,1.269c.027.045.062.08.09.123-.535.058-1.07.12-1.606.171a.816.816,0,0,0-.5,1.269c.016.019.035.034.05.053a1.352,1.352,0,0,0,.056.285c.007.011.016.019.023.03l-1.024.216-2.078.091q-1.092.3-.5,1.268a8.386,8.386,0,0,0,1.227,1.017c-1.261.069-2.523.139-3.787.194q-1.119.291-.5,1.268c.073.073.155.134.231.2-.565.014-1.13.03-1.694.045q-1.282.227-.5,1.268a12.231,12.231,0,0,0,4.493,2.534q4.518,1.948,9.15,3.612a12.22,12.22,0,0,0,5.012,1.217c22.144-9.637,44.369-19.085,66.513-28.722,22.585-9.829,45.113-19.788,67.7-29.6a2.177,2.177,0,0,0,1.745-1.76,2.177,2.177,0,0,0-2.437-.452c-.685.149-1.36.333-2.04.5.574-.25,1.147-.5,1.722-.751a1.841,1.841,0,0,0,1.4-1.686,1.356,1.356,0,0,0-.591-.472l1.571-.688c1.585-.69,1.821-2.151,0-2.187a6.894,6.894,0,0,0-1.8.109.977.977,0,0,0,.048-.116C363.322,110.256,364.155,109.889,364.989,109.525Z"/><path d="M347.008,88.489c1.4-.611,1.35-2-.1-2.148a4.651,4.651,0,0,0-1.964.1.8.8,0,0,0-.185-.41c.8-.4,1.955-1.142,1.6-1.931.953-.5,2.293-1.46,1-2.4a2.8,2.8,0,0,0-1.744-.189,1.573,1.573,0,0,0-.3-.342,1.334,1.334,0,0,0-.177-.1c.165-.071.33-.144.5-.216.984-.428,1.713-.794,1.3-2-.371-1.082-1.26-1.209-2.252-.778q-21.1,9.18-42.162,18.454c-9.32,4.112-18.574,8.558-28.126,12.106-3.256,1.209-6.494,2.274-9.686,3.633q-1.459.621-2.918,1.239a1.524,1.524,0,0,0-.6.493c-1.675.473-3.354.936-5.04,1.368a1.011,1.011,0,0,0-.491,1.271c.022.038.05.067.073.1l-1.317.333a.984.984,0,0,0-.492,1.271c.029.047.066.085.1.131-.54.058-1.079.122-1.621.173a.815.815,0,0,0-.492,1.271c.018.022.039.039.058.061a1.3,1.3,0,0,0,.053.267c.009.014.021.025.031.04-.371.076-.742.155-1.113.232l-2,.086q-1.09.306-.494,1.27a8.317,8.317,0,0,0,1.247,1.025c-.441.025-.88.067-1.321.086-.829.036-1.659.067-2.488.1q-1.118.294-.5,1.269c.079.078.167.143.247.218l-1.711.042q-1.28.23-.5,1.269a12.207,12.207,0,0,0,4.495,2.519q4.519,1.935,9.152,3.583a12.205,12.205,0,0,0,5.01,1.2c27.567-12.105,55.209-24.039,82.794-36.1a2.176,2.176,0,0,0,1.741-1.764,2.176,2.176,0,0,0-2.438-.446c-.678.149-1.348.333-2.022.5q.856-.374,1.712-.75a1.842,1.842,0,0,0,1.393-1.692,1.356,1.356,0,0,0-.587-.466l1.592-.7c1.585-.695,1.81-2.159-.013-2.187a6.849,6.849,0,0,0-1.8.118c.019-.037.031-.077.047-.115Q345.75,89.043,347.008,88.489Z"/><path d="M346.068,56.237c1.394-.646,1.34-2.036-.14-2.148a4.782,4.782,0,0,0-1.887.126.738.738,0,0,0-.177-.461c.8-.422,1.92-1.176,1.587-1.939.962-.531,2.291-1.522.957-2.421a2.988,2.988,0,0,0-1.623-.155,1.486,1.486,0,0,0-.357-.4,1.167,1.167,0,0,0-.17-.084l1.25-.578a1.419,1.419,0,0,0,.241-2.292c-.8-.852-2.2-.025-3.026.352q-15.741,7.179-31.423,14.49c-7.3,3.391-14.553,6.964-22.169,9.6-2.9,1.006-5.659,2.187-8.471,3.418a1.655,1.655,0,0,0-.762.754c-1.548.435-3.091.9-4.66,1.33a1.011,1.011,0,0,0-.466,1.281c.017.028.04.051.058.079l-1.316.355a.984.984,0,0,0-.468,1.28c.039.061.087.11.129.167-.566.072-1.132.149-1.7.212a.814.814,0,0,0-.468,1.279c.036.042.078.075.115.116a1.085,1.085,0,0,0,.031.141c.009.015.022.026.032.04q-.824.192-1.648.378-.746.045-1.491.088-1.083.329-.47,1.279a8.276,8.276,0,0,0,1.247.99q-1.9.138-3.8.241-1.109.317-.472,1.278c.085.082.179.149.267.227-.587.035-1.174.07-1.758.093q-1.267.258-.472,1.279a12.063,12.063,0,0,0,4.511,2.422q4.526,1.836,9.158,3.385a12.055,12.055,0,0,0,5,1.095c20.863-9.629,41.812-19.067,62.69-28.663a2.185,2.185,0,0,0,1.721-1.792,2.184,2.184,0,0,0-2.451-.408c-.663.157-1.317.347-1.975.52.586-.269,1.171-.541,1.757-.81a1.847,1.847,0,0,0,1.368-1.719,1.383,1.383,0,0,0-.531-.42l1.5-.692c1.584-.727,1.783-2.2-.051-2.189a7.014,7.014,0,0,0-1.8.154c.02-.033.025-.074.042-.109Q344.8,56.819,346.068,56.237Z"/></g></g></svg>